<?xml version="1.0" encoding="utf-8"?>
<!-- Generator: Adobe Illustrator 15.1.0, SVG Export Plug-In . SVG Version: 6.00 Build 0)  -->
<!DOCTYPE svg PUBLIC "-//W3C//DTD SVG 1.1//EN" "http://www.w3.org/Graphics/SVG/1.1/DTD/svg11.dtd">
<svg version="1.1" id="Layer_1" xmlns="http://www.w3.org/2000/svg" xmlns:xlink="http://www.w3.org/1999/xlink" x="0px" y="0px"
	 width="16.007px" height="16.957px" viewBox="385.661 364.108 16.007 16.957"
	 enable-background="new 385.661 364.108 16.007 16.957" xml:space="preserve">
<g id="Layer_1_1_">
</g>
<g id="Layer_2">
	<g>
		<g>
			<g>
				<g>
					<g id="Your_Icon_18_">
						<path fill="#231F20" d="M390.104,373.513v6.395c0,0,0.048-0.498,2.722,0.449c0,0,1.83,0.707,3.218,0.707
							c0,0,1.771,0.002,2.696,0c0.924,0,1.207-0.777,1.565-1.393c0,0,0.311-0.883,0-1.293c0,0,0.873-0.352,0.926-1.104
							c0,0,0.152-0.395-0.206-1.062c0,0,0.463-0.596,0.563-1.582c0,0,0.155-0.301-0.307-0.695c0,0,0.562-1.168,0.332-1.781
							c0,0-0.332-1.184-0.999-1.133c0,0-3.6,0.205-3.855,0.258c-0.255,0.053-0.394,0.053-0.89-0.258c0,0-0.239-0.307,0.479-1.336
							c0,0,0.871-1.746,1.078-2.721c0,0,0.258-1.695-1.131-2.674c0,0-0.667-0.41-1.078,0c0,0-0.102,0.207-0.205,1.645
							c0,0-0.102,1.131-0.874,2.107c0,0-1.628,1.438-2.089,2.619C392.052,370.661,391.329,372.513,390.104,373.513z"/>
						<path fill="#231F20" d="M385.768,373.106c-0.503,4.299,0.944,7.26,0.944,7.26h2.869v-7.258
							C387.835,372.89,385.768,373.106,385.768,373.106z M388.233,379.544c-0.298,0-0.537-0.242-0.537-0.539
							c0-0.299,0.239-0.539,0.537-0.539c0.297,0,0.539,0.24,0.539,0.539C388.772,379.302,388.53,379.544,388.233,379.544z"/>
					</g>
				</g>
			</g>
		</g>
	</g>
</g>
<g id="Layer_3">
</g>
<g id="Layer_12">
</g>
<g id="Layer_4">
</g>
<g id="Layer_8">
</g>
<g id="Layer_9">
</g>
<g id="Layer_10">
</g>
<g id="Layer_7">
</g>
<g id="Layer_6">
</g>
<g id="Layer_5">
</g>
</svg>
