<?xml version="1.0" encoding="utf-8"?>
<!-- Generator: Adobe Illustrator 15.1.0, SVG Export Plug-In . SVG Version: 6.00 Build 0)  -->
<!DOCTYPE svg PUBLIC "-//W3C//DTD SVG 1.1//EN" "http://www.w3.org/Graphics/SVG/1.1/DTD/svg11.dtd">
<svg version="1.1" id="Layer_1" xmlns="http://www.w3.org/2000/svg" xmlns:xlink="http://www.w3.org/1999/xlink" x="0px" y="0px"
	 width="288.093px" height="175.557px" viewBox="0 0 288.093 175.557" enable-background="new 0 0 288.093 175.557"
	 xml:space="preserve">
<g>
	<path fill="#33FFCC" d="M161.537,41.282c-1.911,0.734-5.732,1.812-10.191,1.812c-4.998,0-9.113-1.273-12.347-4.36
		c-2.842-2.744-4.606-7.153-4.606-12.298c0-9.849,6.811-17.051,17.884-17.051c3.821,0,6.859,0.833,8.279,1.519l-1.078,3.479
		c-1.764-0.832-3.968-1.42-7.3-1.42c-8.035,0-13.278,4.997-13.278,13.277c0,8.378,4.998,13.327,12.739,13.327
		c2.793,0,4.704-0.393,5.684-0.882v-9.849h-6.663v-3.43h10.877V41.282z"/>
	<path fill="#33FFCC" d="M167.859,26.436c0-2.793-0.049-5.193-0.195-7.398h3.772l0.196,4.703h0.146
		c1.078-3.185,3.725-5.193,6.615-5.193c0.44,0,0.783,0.049,1.176,0.098v4.067c-0.441-0.099-0.883-0.099-1.471-0.099
		c-3.037,0-5.193,2.254-5.781,5.488c-0.098,0.588-0.146,1.322-0.146,2.009v12.641h-4.312V26.436z"/>
	<path fill="#33FFCC" d="M200.297,37.068c0,2.058,0.098,4.066,0.343,5.684h-3.87l-0.344-2.988h-0.146
		c-1.322,1.861-3.871,3.527-7.252,3.527c-4.801,0-7.251-3.381-7.251-6.811c0-5.732,5.096-8.868,14.258-8.819v-0.49
		c0-1.91-0.539-5.487-5.39-5.438c-2.254,0-4.557,0.637-6.223,1.764l-0.979-2.891c1.96-1.225,4.851-2.058,7.839-2.058
		c7.252,0,9.016,4.948,9.016,9.652V37.068z M196.133,30.65c-4.704-0.099-10.045,0.734-10.045,5.34c0,2.842,1.861,4.116,4.018,4.116
		c3.136,0,5.145-1.96,5.83-3.969c0.147-0.49,0.197-0.98,0.197-1.372V30.65z"/>
	<path fill="#33FFCC" d="M236.947,12.178c-1.078-0.687-2.842-1.274-4.851-1.274c-4.507,0-5.88,3.185-5.88,6.958v1.176h13.817v23.714
		h-4.312V22.32h-9.506v20.432h-4.262V22.32h-9.996v20.432h-4.262V22.32h-3.283v-3.282h3.283v-0.833c0-2.939,0.832-5.88,2.842-7.84
		c1.371-1.421,3.43-2.303,6.075-2.303c1.616,0,3.282,0.588,4.165,1.029l-1.226,3.185c-0.735-0.44-1.862-0.833-2.939-0.833
		c-1.372,0-2.353,0.49-3.087,1.225c-1.176,1.274-1.568,3.43-1.568,5.488v0.882h9.996v-1.323c0-6.223,3.674-10.289,10.338-10.289
		c2.156,0,4.654,0.686,5.928,1.519L236.947,12.178z"/>
	<path fill="#33FFCC" d="M267.621,7.964v28.663c0,2.106,0.099,4.507,0.197,6.124h-3.822l-0.195-4.115h-0.147
		c-1.274,2.646-4.116,4.654-7.986,4.654c-5.733,0-10.191-4.851-10.191-12.053c-0.049-7.889,4.899-12.69,10.632-12.69
		c3.675,0,6.076,1.715,7.154,3.577h0.098V7.964H267.621z M263.359,28.69c0-0.539-0.049-1.274-0.196-1.813
		c-0.637-2.694-2.989-4.948-6.222-4.948c-4.459,0-7.105,3.92-7.105,9.113c0,4.802,2.4,8.771,7.007,8.771
		c2.891,0,5.536-1.96,6.32-5.145c0.147-0.588,0.196-1.176,0.196-1.862V28.69z"/>
	<path fill="#33FFCC" d="M279.628,12.374c0,1.471-1.028,2.646-2.743,2.646c-1.568,0-2.598-1.176-2.598-2.646
		c0-1.47,1.078-2.694,2.695-2.694C278.55,9.679,279.628,10.855,279.628,12.374z M274.826,42.751V19.038h4.312v23.714H274.826z"/>
</g>
<g>
	<path fill="#33FFCC" d="M53.009,63.748l2.11-7.423l3.21-2.614h4.116l2.009,4.117l-6.229,7.626L53.009,63.748z M63.097,52.494
		l2.374-6.663h-2.071l-5.196,6.102L63.097,52.494z M58.203,50.419l4.065-5.116l-1.507-2.452l-5.76,4.33L58.203,50.419z
		 M72.585,31.194c8.163-7.452,15.366-14.827,19.026-18.247l-0.277-2.363c0,0-10.414,9.994-22.263,21.64
		C57.224,43.873,40.736,53.711,40.736,53.711l-7.155,2.062l-3.995,4.44l4.75-3.464l5.494-0.45l1.957-2.04
		c0,0,0.538-0.528,2.767-1.621c-1.386,1.479-3.468,3.696-3.595,3.771c-0.189,0.111,1.694,2.032,1.694,2.032l5.687-2.747l0.41-4.517
		l1.435-0.758v4.148c0,0,2.522,1.917,2.444,2.029c-0.074,0.115,4.595-4.103,4.595-4.103l-4.31-4.584
		c-0.016,0.011-0.024,0.019-0.04,0.03C57.842,44.191,65.477,37.685,72.585,31.194z M81.096,28.889l5.42,4.44l2.337-3.164
		l-0.379-3.688l-2.561-1.506L81.096,28.889z M78.258,34.933l2.312,6.029l4.969-6.431l-4.874-3.46L78.258,34.933z M75.247,44.222
		l3.763-2.308l-1.756-5.9l-3.814,5.497L75.247,44.222z M70.729,34.531l5.5,0.154l4.137-6.225h-3.511L70.729,34.531z M72.785,51.25
		l2.609-5.171l-4.264-2.708l-4.521,1.353l-1.956,7.77l1.257,4.732L72.785,51.25z M72.133,40.961l2.637-4.948h-3.311l-2.788,6.048
		L72.133,40.961z M81.572,27.156l5.121-3.595v-2.382l-1.719-1.206l-2.35,2.343l-1.804,4.585L81.572,27.156z M66.564,43.922
		l3.911-8.101l-0.853-0.889l-7.354,6.735l1.807,2.957L66.564,43.922z M111.853,26.025l0.345-0.645l-1.395-1.318v1.7L111.853,26.025z
		 M109.524,25.043l0.561-1.957l-1.688-1.35l-0.341,2.856L109.524,25.043z M107.111,25.271l-0.863,1.243l1.052,0.828l1.056-1.316
		C108.281,26.06,107.111,25.271,107.111,25.271z M104.852,24.97l1.095,0.56l0.752-1.969L104.852,24.97z M104.025,25.043l0.603-2.292
		l-1.997-1.015l-1.015,2.326L104.025,25.043z M102.896,26.311l-0.678,1.371h3.562l-0.433-1.642L102.896,26.311z M105.345,26.025
		l0.003,0.014l0.145-0.014H105.345z M97.889,22.146l0.189-2.56l-2.039-0.302l-1.352,2.11L97.889,22.146z M86.821,19.973l3.727-2.685
		v-1.733l-4.635,3.729L86.821,19.973z M87.646,22.562l5.01-2.298l-0.525-2.034c0,0-4.67,2.294-4.783,2.163
		C87.233,20.264,87.646,22.562,87.646,22.562z M87.118,24.461l1.959,1.069l1.167-2.146h-2.369L87.118,24.461z M90.264,25.796
		l-0.734,1.343c0,0,0.256,1.189,0.324,1.671l1.753-1.944c0-0.021-0.017-0.051-0.043-0.08C91.343,26.505,90.264,25.796,90.264,25.796
		z M37.799,85.82l-3.578,1.279l-4.858,8.352l5.8,3.244l3.914-7.004L37.799,85.82z M27.254,85.444l10.545-1.737l-1.055-5.419
		l-0.075-0.377l-4.823-3.013l-3.613,4.068L27.254,85.444z M36.892,76.908c0.097-0.152,3.464-3.971,3.464-3.971
		c-0.05-0.146-3.109-5.068-3.109-5.068l-4.419,1.409l-0.553,4.164C32.274,73.442,36.789,77.055,36.892,76.908z M41.963,81.225
		l3.262-6.929l-3.613-0.803l-4.215,4.565l1.68,4.82L41.963,81.225z M46.27,84.423l3.2-6.889l-3.349-2.821
		c0,0-3.919,7.938-4.031,7.977C41.975,82.73,46.27,84.423,46.27,84.423z M40.093,90.673c0,0,3.046,3.014,4.899,4.442
		c2.593-0.146,1.615-8.884,1.615-8.884l-5.574-2.827l-2.561,1.209L40.093,90.673z M25.85,70.129
		c-0.006,0.005-0.006,0.011,0.002,0.011C25.854,70.129,25.854,70.121,25.85,70.129z M25.852,70.14
		c-0.051,0.352-2.01,7.824-2.01,7.824l2.711,0.546l4.218-5.424l0.899-3.51l-2.084-1.505C29.586,68.071,25.979,70.195,25.852,70.14z
		 M31.92,60.791l-1.754,5.719l2.108,1.562l4.921-2.163l4.113-6.327v-0.193l-1.402-2.364l-4.171,0.556L31.92,60.791z M42.615,60.621
		c0,0-4.064,5.99-4.143,6.141c-0.074,0.152,2.836,5.312,2.836,5.312l3.205-0.754l1.905-3.249L42.615,60.621z M48.713,85.718
		c0,0-1.026,7.951-1.026,8.057c0,0.103,6.376-1.758,6.376-1.758l-1.404-7.481C52.577,84.56,48.713,85.718,48.713,85.718z
		 M52.256,82.878l-0.904-5.968l-0.856,0.697c0,0-2.305,6.431-2.305,6.816C48.19,84.811,52.256,82.878,52.256,82.878z M56.82,67.869
		l-4.964-1.522l-6.082,5.337c0,0,5.528,4.216,5.577,4.366C51.402,76.203,56.82,67.869,56.82,67.869z M49.544,56.408l-5.873,2.634
		c0,0,3.047,7.492,3.047,7.682c0,0.189,4.858-3.051,4.858-3.051l1.433-6.02L49.544,56.408z M16.146,92.632
		c0,0-2.146,3.311-2.031,3.311c0.11,0,4.778,1.508,4.778,1.508l2.446-3.237L16.146,92.632z M16.26,84.689
		c0,0-0.75,6.284-0.641,6.584c0.112,0.305,5.611,1.204,5.949,1.358c0.338,0.152-0.418-9.754-0.418-9.754L16.26,84.689z
		 M23.04,86.755l3.047-1.312l0.902-5.881h-3.464l-1.396,2.711L23.04,86.755z M37.799,101.807L36.641,99.1l-1.554,0.496l-1.96,5.977
		L37.799,101.807z M37.246,98.292c0,0,5.369-3.313,5.57-3.249l-2.709-2.177l-3.119,4.585L37.246,98.292z M37.384,99.1
		c0,0,1.619,2.57,1.692,2.46c0.076-0.121,5.8-5.465,5.8-5.465l-1.169-0.513L37.384,99.1z M24.204,97l4.22-1.885l4.439-8.017
		l-2.711-0.793c0,0-6.324,8.998-6.436,9.115C23.6,95.534,24.204,97,24.204,97z M15,92.254l-1.151-2.751h-2.583
		c0,0-3.742,6.328-3.742,6.478c0,0.154,2.512,1.809,2.512,1.809L15,92.254z M9.984,86.755l1.281,1.646l2.484,0.2L15,84.037
		c0,0-2.858-0.701-3.06-0.87C11.739,82.992,9.984,86.755,9.984,86.755z M11.266,82.582c0,0-1.481-2.812-1.632-3.019l0.15-0.244
		l-3.716,3.849l0.25,3.588l2.661-0.45L11.266,82.582z M6.372,87.35l-0.907,8.631l1.004-0.399l3.865-6.079
		c-0.201-0.399-0.906-2.154-0.906-2.154H6.372z M16.963,81.929l0.764-10.541l-4.129,1.602l-2.332,2.814l-0.63,3.058l1.506,3.413
		l3.213,0.893L16.963,81.929z M18.632,71.207c0,0-0.263,4.219-0.34,4.331c-0.079,0.11,4.595,0.266,4.595,0.266l1.676-5.199
		l-1.904-1.279L18.632,71.207z M19.045,76.91l-1.096,5.028h3.477l1.496-4.667L19.045,76.91z M13.096,103.962l5.117-1.63l0.419-4.041
		L13.396,97l-2.131,1.693L13.096,103.962z M7.523,102.604l3.365,0.857l-0.555-4.768l-4.266-1.243L7.523,102.604z M3.012,83.446
		l-2.454,3.729l0.827,4.852l3.238,3.692l0.842-7.646l-0.348-4.627H3.012z M9.784,78.509c0,0,0.296-1.919,0.2-2.143l-1.56,0.905
		c0,0-1.577,3.953-1.577,4.145C6.848,81.601,9.784,78.509,9.784,78.509z M4.021,76.029l-1.88,3.534l0.871,2.375l2.453,0.336
		l2.249-5.156l-0.19-2.068L4.021,76.029z M-1.925,82.69l-0.528,3.766l2.186,0.299L1.5,82.461l-0.639-1.99L-1.925,82.69z
		 M-0.474,87.757l-3.412,0.845l0.417,7.379l3.763-3.349L-0.474,87.757z M-4.521,81.422l-3.164,3.191c0,0,0.447,3.312,0.523,3.692
		c0.075,0.371,2.185,0,2.185,0s1.732-5.011,1.732-4.86v-0.278L-4.521,81.422z M-9.794,95.719l5.646,0.262l-0.829-6.478l-1.995-0.262
		l-2.821,4.406V95.719z M-2.717,97l-0.248,3.801h5.467l2.009-4.016c-0.248-0.403-3.312-3.463-3.312-3.463L-2.717,97z M5.465,98.292
		c0,0-1.906,3.009-1.906,3.164c0,0.154,2.51,0.398,2.51,0.398S5.615,98.843,5.465,98.292z M-3.886,107.179l3.412,0.598l2.827-5.923
		c-0.15-0.196-5.318-0.244-5.318-0.244L-3.886,107.179z M-3.886,97.063l-5.908,0.161l-0.718,4.629l5.883-0.652L-3.886,97.063z
		 M2.592,76.366c0,0-4.896,0.605-5.045,0.715c-0.148,0.115-1.355,2.675-1.433,2.896c-0.073,0.23,1.206,1.445,1.206,1.445
		l3.916-1.859l1.582-3.197H2.592z M3.57,75.61l0.94-1.655l-4.217,1.359L3.57,75.61z M8.666,75.979l2.323-1.031l1.778-2.085v-0.1
		l-3.788,1.782L8.666,75.979z M9.532,73.417l0.303-0.852H9.703c0,0-3.532,0.877-3.635,0.928C5.968,73.54,4.715,75.05,4.715,75.05
		L9.532,73.417z M17.949,70.531c0.007,0,0.007,0,0.007,0C17.939,70.535,17.939,70.538,17.949,70.531z M22.469,68.533l1.848-3.463
		l-4.669,2.73c0,0-1.427,2.604-1.691,2.73C18.177,70.428,22.469,68.533,22.469,68.533z M30.343,61.19l-3.88,2.07l-3.014,4.811
		l1.956,1.255l3.77-2.486L30.343,61.19z M17.085,71.155c0,0,0.605-1.981,0.642-2.06l-3.148,1.608l-0.703,1.608L17.085,71.155z
		 M13.096,72.312c0,0,0.374-1.051,0.43-1.132l-2.686,0.879l-0.326,0.878L13.096,72.312z M-11.756,107.777
		c0,0,6.276-0.699,6.289-0.549c0.014,0.149,1.318-4.421,1.318-4.421l-6.702,0.654L-11.756,107.777z M-14.015,102.121
		c0,0-0.9,3.348-0.9,3.536c0,0.192,3.159-2.195,3.159-2.195l0.34-1.608L-14.015,102.121z M-11.756,95.493l-2.444,4.963l2.596,0.029
		l1.093-5.218L-11.756,95.493z M-9.627,89.242c0,0-1.978,4.296-1.939,4.406c0.039,0.112,1.055,0,1.055,0l2.826-4.705l-0.357-2.345
		L-9.627,89.242z M-9.794,86.945l1.843-1.583l-0.712-1.744l-1.658,2.614L-9.794,86.945z M-9.794,87.757l-0.981-0.812l-1.395,5.082
		l0.754-0.158L-9.794,87.757z M-4.723,80.471l0.574-1.305l-3.537,2.964l0.376,1.102L-4.723,80.471z M47.385,101.562l4.267-1.46
		l0.401-5.059l-3.413-0.368L45.225,97L47.385,101.562z M48.64,103.962l5.17,2.363l-0.751-5.024l-0.103-0.199L48.64,103.962z
		 M54.062,107.576l-5.172-0.701l1.897,2.662l3.274,0.715V107.576z M48.64,114.861l5.423-0.81v-1.897l-5.423-1.109V114.861z
		 M50.294,117.871l-0.602,3.261c0,0,5.775,0.406,5.977,0.452c0.2,0.045-2.56-4.669-2.56-4.669L50.294,117.871z M52.689,123.145
		l-0.386,2.207c0,0,3.267,0.602,3.376,0.805c0.108,0.196-0.561-3.564-0.561-3.564L52.689,123.145z M55.693,127.813l-0.879,3.707
		h3.41L55.693,127.813z M58.225,137.022l2.389,1.734v-3.464L58.225,137.022z M30.453,106.598l-0.752,3.692l1.771,0.565l2.109-4.824
		L30.453,106.598z M30.906,111.909l-1.205,0.759c0,0,0.191,1.765,0.191,1.987c0,0.229,1.014-2.634,1.014-2.634V111.909z
		 M28.499,110.855h-3.391l-0.792,2.095l4.481-0.329C28.798,112.622,28.532,110.967,28.499,110.855z M29.289,106.875l-2.732-1.304
		l-1.108,3.32c0,0,2.976,0.945,3.084,1.06C28.647,110.065,29.289,106.875,29.289,106.875z M34.221,99.636l-6.102-2.186l-2.032,5.388
		c0,0,4.778,2.969,4.819,3.192C30.949,106.263,34.221,99.636,34.221,99.636z M25.184,115.901c0,0,2.407,1.052,2.444,1.17
		c0.04,0.108,1.28-2.401,1.28-2.401s-0.448-1.333-0.567-1.379L25.184,115.901z M22.62,115.676l2.828-1.847l-1.132-0.264h-0.285
		L22.62,115.676z M6.49,111.909l2.822-1.844l-2.693-0.848L6.49,111.909z M1.604,121.224l2.823-1.85l-2.698-0.844L1.604,121.224z
		 M18.949,108.703l2.828-1.848l-2.697-0.848L18.949,108.703z M16.397,108.421l1.219-3.148l-2.681,0.881L16.397,108.421z
		 M13.57,104.104l-2.682,0.882l1.465,2.26L13.57,104.104z M8.476,105.188l1.437,0.362l-0.685-1.718L8.476,105.188z M9.312,113.336
		l2.754,0.232l-1.561-2.279L9.312,113.336z M4.892,126.615l2.755,0.229l-1.566-2.282L4.892,126.615z M-1.089,135.328l2.749,0.234
		l-1.56-2.287L-1.089,135.328z M3.04,123.635l-1.565-2.283l-1.187,2.051L3.04,123.635z M23.025,112.137l1.006-1.282l-2.01-0.418
		h-0.188l-0.303,1.062L23.025,112.137z M22.356,121.021l4.2,0.563l0.812-3.235h-1.773L22.356,121.021z M25.184,117.071l-2.07-0.946
		l-1.397,1.846c0,0,1.435,1.091,1.62,1.167C23.525,119.214,25.184,117.071,25.184,117.071z M23.003,112.732l-1.473-0.595
		l-0.38,2.142c0,0,0.38,0.565,0.38,0.715C21.53,115.149,23.003,112.732,23.003,112.732z M21.15,117.629l0.565-1.806l-0.749-0.339
		l-0.377,1.882L21.15,117.629z M21.716,120.796l1.067-1.169l-2.193-1.278v0.144l-0.226,1.7L21.716,120.796z M23.789,125.086
		c0.305-0.152,2.298-0.41,2.298-0.41v-1.584c0,0-2.751-0.49-2.638-0.379C23.565,122.83,23.485,125.239,23.789,125.086z
		 M22.364,122.083l-2.368-0.729c0,0-0.802,1.616-0.802,1.762c0,0.157,1.46,1.37,1.61,1.446
		C20.956,124.638,22.364,122.083,22.364,122.083z M23.789,128.325l0.716-1.77v-0.19c0,0-2.661-0.715-2.935-0.299
		c-0.266,0.418-0.98,2.26-0.98,2.26H23.789z M-0.77,112.211c0,0,2.569-5.044,2.569-5.24l-0.98-0.089l-2.407,4.501L-0.77,112.211z
		 M-7.197,110.028l5.609-0.225l0.818-1.206l-6.653-0.192L-7.197,110.028z M-3.62,113.228c0,0,1.47-2.223,1.546-2.335h-4.368
		l-0.563,0.713L-3.62,113.228z M-5.015,115.185c0-0.152,0.866-1.579,0.866-1.579c-0.265,0-3.957-1.962-3.803-1.85
		c0.15,0.109-0.712,1.85-0.712,1.85S-5.015,115.338-5.015,115.185z M-8.213,110.783v-2.377v-0.111c0,0-4.483,1.167-4.41,1.298
		c0.079,0.132,0,2.429,0,2.62C-12.623,112.398-8.213,110.783-8.213,110.783z M-12.96,105.469l-2.632,1.502
		c0,0,0.752,2.076,0.677,2.246c-0.073,0.17,2.292-0.923,2.292-0.923L-12.96,105.469z M-13.523,110.257c0,0-2.068-0.609-2.068-0.666
		c0-0.055-0.416,1.301-0.416,1.301l1.431,1.335C-14.577,112.228-13.523,110.369-13.523,110.257z M-12.052,113.678
		c0,0,4.666,3.542,4.854,3.653c0.191,0.115,1.018-0.977,1.132-1.245l-4.446-2.75L-12.052,113.678z M-11.416,117.668l1.885,1.847
		l1.882-1.166v-0.188l-2.334-1.807L-11.416,117.668z M-11.416,115.633l-2.294-1.354l-1.509,0.913l2.412,1.762L-11.416,115.633z
		 M-13.314,120.379l2.539,1.846l0.354-2.104c0,0-1.071-1.249-1.335-1.286S-13.314,120.379-13.314,120.379z M-15.219,124.299h2.259
		l1.204-1.283c0,0-2.259-1.396-2.352-1.396S-15.219,124.299-15.219,124.299z M-15.219,118.428l2.259,1.086l-0.206-2.179
		l-2.237-0.982L-15.219,118.428z M3.076,127.518l-0.208-2.175l-2.237-0.987l0.188,2.076L3.076,127.518z M-15.592,121.837
		l0.188-2.323l-1.569-0.333l-0.604,1.493L-15.592,121.837z M-17.227,127.107c0.153,0,2.008,0.404,2.008,0.404l1.037-2.16
		c-0.384,0-2.539-0.454-2.539-0.454S-17.375,127.107-17.227,127.107z M-17.25,129.72l1.658-0.703c0,0-2.285-1.407-2.285-1.153
		C-17.877,128.109-17.25,129.72-17.25,129.72z M-17.877,126.555l-0.854-1.854l-1.005,1.565c0,0,0.753,1.443,1.005,1.563
		C-18.479,127.95-17.877,126.555-17.877,126.555z M-16.244,123.712l0.513-1.224l-1.881-0.494l0.008,0.24l-1.165,1.863
		L-16.244,123.712z M-18.045,132.162l1.134-1.238c0,0-2.449-0.529-2.26-0.412C-18.982,130.622-18.045,132.162-18.045,132.162z
		 M-21.017,129.419l0.978,1.076l0.856-1.381l-1.307-1.283h-0.188L-21.017,129.419z M-18.045,133.144l-1.69-0.562l0.079,2.428
		L-18.045,133.144z M-21.62,130.496l-0.562,2.689c0,0,1.615-1.245,1.732-1.285C-20.335,131.865-21.393,130.622-21.62,130.496z
		 M-21.732,137.138h1.055c0,0,0.019-0.963,0.58-1.509h-1.635V137.138z M114.985,29.451c0.486-0.79-1.808-3.141-1.808-3.141
		c0.339,0.726,1.391,2.366,0,1.573C113.178,27.883,114.117,28.702,114.985,29.451z M113.814,34.647
		c2.6,0.528,1.621-5.089-0.941-6.966C114.943,30.998,114.529,33.554,113.814,34.647z M108.355,30.054
		c1.734,1.318,2.297,2.446,3.143,3.091c2.316,0.71,2.094-2.567,0-3.996c0,0,1.068,1.921,0.699,2.483
		C111.553,32.598,109.482,30.355,108.355,30.054z M103.122,11.089c-1.822-1.959-1.621-5.52-0.661-6.472
		c0.951-0.955-2.715-1.507-3.668,0.447c-0.955,1.963,1.003,5.621-2.613,4.92C96.283,10.67,101.917,11.416,103.122,11.089z
		 M95.931,12.14c-2.161-1.556-3.268-2.81-3.564-3.36c-0.302-0.55-0.053,4.118,3.813,5.774C95.622,13.734,95.404,12.69,95.931,12.14z
		 M103.862,19.972v0.001C103.871,19.983,103.869,19.981,103.862,19.972z M106.058,18.23c-0.26-0.189-5.116-1.322-5.116-1.322
		s2.779,2.9,2.921,3.063C103.708,19.8,106.058,18.23,106.058,18.23z M6.996,105.128h0.909c-1.377-0.798-2.44-1.41-2.44-1.41
		l-2.453,0.974l3.984,2.939V105.128z M10.916,110.532l1.852,1.371l1.414-3.119c-0.104-0.062-1.57-0.912-3.266-1.901V110.532z
		 M24.894,101.562c0,0,1.153-2.868,1.193-2.991v-0.279l-1.745-0.171l-1.058,2.681L24.894,101.562z M21.657,102.157l1.627-4.706
		l-1.352-2.073l-2.56,3.39v2.794L21.657,102.157z M23.284,93.122l4.474-6.023l-4.474,1.049c0,0-1.653,5.074-1.627,5.174
		C21.68,93.419,23.284,93.122,23.284,93.122z M25.184,106.575l0.666-1.882l-2.149-1.231l-0.697,1.834L25.184,106.575z
		 M18.918,104.692c0.151,0.177,2.798,1.633,2.798,1.633v-2.864l-3.084-0.654C18.632,102.807,18.771,104.517,18.918,104.692z
		 M24.707,110.028l-0.676-2.8l-1.248-0.903c0,0-1.104,2.811-1.126,2.892C21.631,109.298,24.707,110.028,24.707,110.028z
		 M19.645,134.287l1.284,2.095l2.074-1.489l0.446-3.268L19.645,134.287z M21.57,130.322l-1.206-1.157l-2.649,1.157l1.479,1.303
		L21.57,130.322z M19.645,139.408h-0.006C19.645,139.412,19.647,139.416,19.645,139.408z M17.715,139.625
		c0,0,1.043-0.078,1.924-0.217c-0.094-0.103-1.924-2.874-1.924-2.874V139.625z M18.369,143.472l1.049-1.605
		c0,0-0.768-0.176-1.501-0.647c-0.153-0.093-1.508-3.039-1.508-3.039v3.884L18.369,143.472z M106.433,19.474l3.276,1.841
		l-0.082-0.14l-1.571-2.728L106.433,19.474z M101.352,24.461l-1.993,1.85l1.844,0.892l1.017-1.932v-0.228L101.352,24.461z
		 M91.334,14.92l2.15,3.122l1.769-1.545l-2.411-3.122L91.334,14.92z M94.228,20.715l1.652-3.172l-2.459,1.583L94.228,20.715z
		 M90.564,24.97l2.354,0.56l1.582-3.383l-1.845-0.832l-2.092,1.247V24.97z M100.941,22.86l1.277-1.882l-3.126-1.504l-0.376,2.448
		L100.941,22.86z M95.211,22.576l-0.94,2.745l2.559-0.307c0.144-0.235,0.451-2.501,0.451-2.501L95.211,22.576z M98.301,22.86
		l-1.021,2.183l1.136,0.753l1.81-1.88L98.301,22.86z M106.901,27.557l-0.469,1.058c0,0,1.172,0.721,1.194,0.837
		c0.023,0.107,0.6-1.318,0.6-1.318L106.901,27.557z M97.787,17.543l3.829,2.079l-2.487-3.689L97.787,17.543z M106.058,20.19
		l-1.843,0.973l2.674,1.697l0.598-1.545L106.058,20.19z M100.941,14.981c-0.167-0.078-1.646-0.86-1.646-0.86
		s-0.477,1.334-0.403,1.334c0.075,0,1.542,0.956,1.577,0.702C100.496,15.909,100.941,14.981,100.941,14.981z M97.538,13.375
		l-1.255,0.903c0,0,1.878,0.926,1.984,0.886c0.096-0.042-0.189-1.458-0.189-1.458L97.538,13.375z M96.661,18.23l1.126-2.631
		l-2.011-0.435L96.661,18.23z M98.752,11.44l-2.372-0.352c0,0,2.713,1.91,2.979,2.094C99.621,13.375,98.752,11.44,98.752,11.44z
		 M100.469,11.44l-0.558,1.757c0,0,0.955,0.781,1.251,0.923c0.305,0.157,0.381-1.161,0.454-1.468L100.469,11.44z M101.917,14.844
		c0,0-0.338,1.277-0.301,1.357c0.039,0.08,3.538,0.521,3.538,0.521L101.917,14.844z M104.628,15.164l-1.506-2.511l-1.055,1.482
		L104.628,15.164z M110.962,26.552c0,0-1.925-0.859-1.888-0.718c0.035,0.14,0.635,1.368,0.635,1.368L110.962,26.552z
		 M57.326,134.287l-2.512-0.65c0,0,0.399,1.707,0.399,1.656C55.214,135.243,57.326,134.287,57.326,134.287z M54.814,127.784
		l-2.511-0.652c0,0,0.403,1.703,0.403,1.658C52.707,128.742,54.814,127.784,54.814,127.784z M49.494,116.379l-2.512-0.647
		c0,0,0.402,1.708,0.402,1.659C47.385,117.336,49.494,116.379,49.494,116.379z M48.043,111.112l-2.507-0.649
		c0,0,0.396,1.7,0.396,1.655C45.932,112.066,48.043,111.112,48.043,111.112z M46.129,106.399c0-0.052,2.107-1,2.107-1l-2.507-0.653
		C45.729,104.746,46.129,106.449,46.129,106.399z M46.129,107.998l-2.509-0.649c0,0,0.403,1.707,0.403,1.655
		C44.023,108.954,46.129,107.998,46.129,107.998z M42.816,107.605l-2.511-0.655c0,0,0.4,1.706,0.4,1.655
		C40.706,108.556,42.816,107.605,42.816,107.605z M41.562,104.517l-2.514-0.653c0,0,0.401,1.708,0.401,1.656
		C39.45,105.469,41.562,104.517,41.562,104.517z M44.072,105.498l-2.51-0.651c0,0,0.4,1.707,0.4,1.663
		C41.963,106.457,44.072,105.498,44.072,105.498z M44.678,103.632c0-0.047,2.107-0.999,2.107-0.999l-2.504-0.653
		C44.281,101.98,44.678,103.687,44.678,103.632z M41.377,101.98c0,0,0.402,1.707,0.402,1.652c0-0.041,2.109-0.995,2.109-0.995
		L41.377,101.98z M46.48,99.663l-2.508-0.655c0,0,0.397,1.708,0.397,1.655C44.37,100.613,46.48,99.663,46.48,99.663z
		 M38.637,105.399l-2.51-0.653c0,0,0.398,1.703,0.398,1.652S38.637,105.399,38.637,105.399z M58.168,132.808
		c0,0,0.396,1.706,0.396,1.655c0-0.052,2.109-1.003,2.109-1.003L58.168,132.808z M58.73,140.159l-2.208-2.71l0.804,3.383
		L58.73,140.159z M61.139,140.832l-1.72,2.141l1.72,1.001V140.832z M60.613,145.988l-2.389-1.508l1.194,2.407l1.194,0.701V145.988z
		 M61.739,146.785l1.712,1.356l-1.156-3.108L61.739,146.785z M61.739,148.542l-1.126,0.55l0.525,2.06l1.456-0.552L61.739,148.542z
		 M19.645,132.692l-2.184-1.067c0,0-0.147,2.012,0,2.164C17.615,133.935,19.645,132.692,19.645,132.692z M24.094,130.095
		l-1.964-0.931c0,0,0.266,1.872,0.415,2.169C22.699,131.641,24.094,130.095,24.094,130.095z M18.375,144.854l-1.955-0.932
		c0,0,0.264,1.87,0.414,2.173C16.985,146.399,18.375,144.854,18.375,144.854z M20.59,126.217l0.188-1.052l-1.583-1.058l-0.41,1.43
		L20.59,126.217z M18.523,126.483l-0.606,2.519l2.032-0.678l0.415-1.192L18.523,126.483z M16.859,136.119
		c0.663,0.039,2.92,0.566,2.92,0.566l-1.256-1.733l-1.664-0.665C16.859,134.287,16.637,135.929,16.859,136.119z M66.463,171.635
		c2.441,0.472,4.844-0.048,4.844-0.048s2.261,0.752,3.238,0.826c0.299-0.826-3.764-4.82-3.764-4.82
		c-0.176-0.04-0.346-0.078-0.512-0.119c-0.322-0.06,1.406,3.003,1.113,2.979c-0.809-0.046-2.81-2.831-3.411-2.636
		c-2.446,0.796-3.368,3.323-3.368,3.323S64.265,171.216,66.463,171.635z M62.595,153.261l2.009,0.252l-0.955-2.057L62.595,153.261z
		 M14.754,147.362l2.004,0.255l-1.001-1.481L14.754,147.362z M67.416,165.962l-0.652-1.502l-0.703,1.502H67.416z M62.595,154.519
		l-1.456-1.006c0,0,0.402,2.008,0.467,2.16C61.667,155.824,62.595,154.519,62.595,154.519z M63.451,156.275l2.66,1.656l-1.807-2.658
		L63.451,156.275z M64.604,158.786c0,0-1.855-1.702-2.009-1.755l0.604,2.607L64.604,158.786z M65.509,163.199l2.463-0.951
		l-1.86-1.604L65.509,163.199z M65.203,160.644h-1.752c0,0,0.349,1.805,0.476,1.752C64.051,162.349,65.203,160.644,65.203,160.644z
		 M17.398,150.204l-0.641-1.131c0,0-1.403,1.354-1.403,1.656S17.398,150.204,17.398,150.204z M14.187,149.931l1.57-0.858
		l-1.003-0.53L14.187,149.931z M16.42,152.948l-1.254-1.581c0,0-0.827,1.615-0.979,1.771
		C14.039,153.291,16.42,152.948,16.42,152.948z M16.378,155.21l0.042-0.529l-1.065-1.018l-0.829,1.547H16.378z M10.651,168.878
		c2.107,1.43,9.035,0.863,9.035,0.863l-2.673-3.611l0.227,3.235l-2.715-3.464C14.525,165.902,11.364,167.296,10.651,168.878z
		 M12.744,156.171l2.01,0.703l-1.253-2.102L12.744,156.171z M15.757,157.884l-2.01,1.1c0,0,1.708,0.654,2.01,0.702
		C16.058,159.738,15.757,157.884,15.757,157.884z M14.182,161.599l-1.736-2.813c0,0-0.05,3.313,0,3.462
		C12.491,162.396,14.182,161.599,14.182,161.599z M15.894,164.46c0.164-0.251-0.728-2.193-0.728-2.193l-1.419,2.542L15.894,164.46z
		 M11.592,163.542c0,0-0.401,2.372-0.401,2.671c0,0.307,1.205-0.551,1.554-0.598C13.096,165.565,11.739,163.657,11.592,163.542z
		 M2.172,137.509c0,0,1.045-0.064,1.93-0.187c-0.094-0.106-1.881-2.906-1.881-2.906L2.172,137.509z M4.102,137.323
		c0.003,0.005,0.008,0.005,0.003,0H4.102z M0.825,139.931l1.939,1.437l1.079-1.593l-3.556-2.826L0.825,139.931z M2.751,142.75
		l-1.944-0.961c0,0,0.236,1.87,0.379,2.176C1.338,144.268,2.751,142.75,2.751,142.75z M1.098,145.482l-0.986-1.496l-1.022,1.217
		L1.098,145.482z M1.687,148.082l-0.614-1.145c0,0-1.429,1.334-1.434,1.638C-0.366,148.873,1.687,148.082,1.687,148.082z
		 M-1.518,147.761l1.583-0.841l-0.994-0.541L-1.518,147.761z M0.665,150.812l-1.226-1.598c0,0-0.855,1.603-1.004,1.75
		C-1.719,151.112,0.665,150.812,0.665,150.812z M0.588,153.07l0.047-0.527l-1.041-1.037l-0.854,1.531L0.588,153.07z M-1.061,154.716
		l-1.223-2.129l-0.771,1.389L-1.061,154.716z M-0.071,155.732l-2.023,1.072c0,0,1.693,0.681,1.992,0.737
		C0.202,157.596-0.071,155.732-0.071,155.732z M-1.703,159.423l-1.697-2.834c0,0-0.102,3.308-0.05,3.457
		C-3.405,160.201-1.703,159.423-1.703,159.423z M-0.039,162.312c0.171-0.248-0.691-2.205-0.691-2.205l-1.457,2.521L-0.039,162.312z
		 M-4.328,161.324c0,0-0.438,2.369-0.443,2.669c-0.005,0.304,1.216-0.53,1.566-0.58C-2.856,163.369-4.179,161.439-4.328,161.324z
		 M7.905,108.176l1.522,1.042l0.705-2.368l-1.229-0.842L7.905,108.176z M2.679,114.409l-0.879-2.5l-2.458,0.562l0.765,2.085
		L2.679,114.409z M9.194,115.191c0,0,1.943,0.895,2.071,1.162c0.126,0.263,0.549-1.684,0.549-1.684l-1.902-0.391L9.194,115.191z
		 M-14.107,97.877c0.664-0.747,1.748-5.246,1.748-5.246s-11.944,14.626-14.854,20.937C-23.9,108.294-17.952,102.201-14.107,97.877z
		 M6.746,115.006c0,0,2.261-0.955,2.269-0.926c0.019,0.024-0.938-1.869-0.938-1.869l-1.807,1.017L6.746,115.006z M7.094,122.486
		c0,0,2.262-0.948,2.273-0.926c0.016,0.023-0.942-1.866-0.942-1.866l-1.806,1.013l0.408,1.53l-2.959-0.682
		c0,0-0.227,2.725-0.115,2.801c0.114,0.073,3.123-0.339,3.123-0.339v-1.59L7.094,122.486z M1.978,109.11l-1.654,2.179
		c0,0,2.959-0.372,3.058-0.396C3.484,110.871,1.978,109.11,1.978,109.11z M4.961,112.062l-2.282-0.492c0,0,0.476,2.186,0.58,2.383
		c0.099,0.205,1.985-0.197,2.204-0.148C5.677,113.859,4.961,112.062,4.961,112.062z M5.74,109.39l-2.458-0.28
		c0,0,0.702,1.882,0.702,2.033c0,0.151,1.655,0.274,1.756,0.426C5.842,111.721,5.74,109.39,5.74,109.39z M4.533,108.533h2.514
		l-2.086-1.684L4.533,108.533z M1.8,106.007l2.135,1.239l0.402-1.048l-1.983-1.027L1.8,106.007z M1.8,108.703l1.935-0.409v-0.663
		l-1.582-0.553L1.8,108.703z M7.776,103.315l-3.563-0.856c0,0,3.086,1.707,3.235,1.645C7.597,104.042,7.776,103.315,7.776,103.315z
		 M47.357,109.956c0.191,0.192,2.488,0.296,2.488,0.296l-1.609-2.748l-1.451,0.255C46.785,107.759,47.168,109.759,47.357,109.956z
		 M-22.95,138.958l0.769,1.859l0.869-2.41L-22.95,138.958z M-21.312,134.486l-1.436-0.691c0,0-1.202,2.302-1.202,2.505
		C-23.95,136.503-21.312,134.486-21.312,134.486z M-23.605,141.114l-0.345-3.36c0,0-1.407,3.262-1.511,3.36
		C-25.559,141.215-23.605,141.114-23.605,141.114z M-24.533,142.52l0.79,2.358l0.793-2.358H-24.533z M-26.966,145.382h1.909
		l-0.956-2.862L-26.966,145.382z M-25.634,146.638c-0.073,0,0.551,3.889,0.577,3.586c0.026-0.295,0.904-3.764,0.904-3.764h-0.104
		C-24.256,146.46-25.559,146.638-25.634,146.638z M-26.183,148.894c0.021,0.078-0.982-2.631-0.982-2.631s-1.255,2.604-1.255,2.64
		C-28.42,148.923-26.213,148.816-26.183,148.894z M-28.844,152.607c0,0.155,2.9,0.496,3.009,0.456
		c0.114-0.034-0.178-3.124-0.178-3.124S-28.844,152.462-28.844,152.607z M-28.42,154.906c0.027-0.26-1.329-2.598-1.329-2.598
		l-1.847,3.465L-28.42,154.906z M-30.01,158.521h2.33c-0.076-0.187-0.74-2.332-0.74-2.332L-30.01,158.521z M-28.42,161.231
		l-0.615-1.919c0,0-1.694,1.885-1.771,1.919C-30.882,161.272-28.42,161.231-28.42,161.231z M-30.657,160.281
		c0.568,0.104-0.938-3.15-0.938-3.15s-1.355,2.709-1.318,2.932C-32.877,160.289-31.22,160.177-30.657,160.281z M-35,163.904
		c2.766,3.824,7.581,3.164,8.034,3.27c0.455,0.094-1.454-4.421-1.454-4.421v3.161l-2.523-3.313
		C-30.943,162.6-32.991,162.552-35,163.904z M10.133,118.701v-1.769l-2.028-0.115c0,0-1.205,2.147-1.096,2.218
		C7.122,119.11,10.133,118.701,10.133,118.701z M6.557,117.188c0.154,0.111-0.709-2.148-0.783-2.174l-1.434,1.121
		c0,0,0.076,2.298,0.301,2.707C4.868,119.257,6.406,117.075,6.557,117.188z M6.557,129.404c0.154,0.11-0.709-2.149-0.783-2.181
		l-1.434,1.118c0,0,0.076,2.303,0.301,2.717C4.868,131.468,6.406,129.289,6.557,129.404z M1.01,118.575l1.998-1.503l-2.685-2.065
		L1.01,118.575z M1.7,131.501l1.995-1.498l-2.686-2.07L1.7,131.501z M3.56,135.408l1.991-1.503l-2.683-2.066L3.56,135.408z
		 M1.01,132.116l-2.682-2.062l0.686,3.569L1.01,132.116z M-5.697,167.199c-0.214,0.119,3.832,0.986,7.301,0.568
		c0-0.569-3.093-3.087-3.093-3.087l0.606,1.999l-2.826-1.999C-3.709,164.68-5.479,167.089-5.697,167.199z M106.248,11.44
		c0,0-0.83,1.906-2.386,1.056c0.048,1.4,3.667,4.528,3.682,4.539c-0.933-2.191-1.506-2.698-0.244-3.838
		C108.582,12.04,106.248,11.44,106.248,11.44z M107.546,17.036h-0.002c0.014,0.029,0.018,0.049,0.036,0.081L107.546,17.036z
		 M88.498,12.653l2.562-2.82c-0.249-0.153-3.462-2.379-3.462-2.379L88.498,12.653z"/>
</g>
</svg>
