<?xml version="1.0" encoding="utf-8"?>
<!-- Generator: Adobe Illustrator 15.1.0, SVG Export Plug-In . SVG Version: 6.00 Build 0)  -->
<!DOCTYPE svg PUBLIC "-//W3C//DTD SVG 1.1//EN" "http://www.w3.org/Graphics/SVG/1.1/DTD/svg11.dtd">
<svg version="1.1" id="Layer_1" xmlns="http://www.w3.org/2000/svg" xmlns:xlink="http://www.w3.org/1999/xlink" x="0px" y="0px"
	 width="16.092px" height="14.437px" viewBox="386.414 333.075 16.092 14.437"
	 enable-background="new 386.414 333.075 16.092 14.437" xml:space="preserve">
<g id="Layer_1_1_">
</g>
<g id="Layer_2">
	<g>
		<g>
			<g>
				<g>
					<g>
						<path fill="#231F20" d="M396.552,342.976v-2.625c-0.011,0-0.021,0-0.03,0c-1.429,0-2.623,0.234-3.556,0.699
							c-0.541,0.271-0.998,0.547-1.391,0.844l-0.056,0.043c-0.062,0.049-0.123,0.096-0.182,0.146l-0.039,0.031
							c-1.419,1.162-1.79,1.926-2.071,2.48l-0.158,0.359l-0.126-0.32c-0.057-0.238-0.29-1.027-0.155-2.604l0.011-0.123
							c0.046-0.502,0.167-0.928,0.26-1.289l0.105-0.283c0.384-1.1,0.862-1.914,1.549-2.795c0.966-1.232,2.186-2.055,3.312-2.609
							h-7.611v12.582h12.583v-6.506L396.552,342.976z"/>
						<path fill="#231F20" d="M397.525,334.628v-1.553l4.98,4.018l-5.004,4.031v-1.613c0,0-2.426-0.625-5.023,0.783
							c-1.398,0.697-2.245,1.5-2.938,2.445c0,0,0.19-2.508,1.978-4.789C393.755,335.097,397.525,334.628,397.525,334.628z"/>
					</g>
				</g>
			</g>
		</g>
	</g>
</g>
<g id="Layer_3">
</g>
<g id="Layer_12">
</g>
<g id="Layer_4">
</g>
<g id="Layer_8">
</g>
<g id="Layer_9">
</g>
<g id="Layer_10">
</g>
<g id="Layer_7">
</g>
<g id="Layer_6">
</g>
<g id="Layer_5">
</g>
</svg>
